<?xml version="1.0" encoding="UTF-8" standalone="no"?>
<svg
   width="27.999998"
   height="27.999998"
   viewBox="0 0 27.999998 27.999998"
   version="1.1"
   id="svg1"
   sodipodi:docname="1-2.svg"
   inkscape:version="1.3.2 (091e20e, 2023-11-25, custom)"
   xmlns:inkscape="http://www.inkscape.org/namespaces/inkscape"
   xmlns:sodipodi="http://sodipodi.sourceforge.net/DTD/sodipodi-0.dtd"
   xmlns:xlink="http://www.w3.org/1999/xlink"
   xmlns="http://www.w3.org/2000/svg"
   xmlns:svg="http://www.w3.org/2000/svg">
  <defs
     id="defs1">
    <linearGradient
       id="linearGradient1"
       inkscape:collect="always">
      <stop
         style="stop-color:#55b0fb;stop-opacity:1;"
         offset="0"
         id="stop1" />
      <stop
         style="stop-color:#0689f4;stop-opacity:1;"
         offset="1"
         id="stop2" />
    </linearGradient>
    <linearGradient
       inkscape:collect="always"
       xlink:href="#linearGradient1"
       id="linearGradient2"
       x1="100.32742"
       y1="-138.39206"
       x2="100.32742"
       y2="291.19003"
       gradientUnits="userSpaceOnUse" />
  </defs>
  <sodipodi:namedview
     id="namedview1"
     pagecolor="#ffffff"
     bordercolor="#000000"
     borderopacity="0.25"
     inkscape:showpageshadow="2"
     inkscape:pageopacity="0.0"
     inkscape:pagecheckerboard="0"
     inkscape:deskcolor="#d1d1d1"
     inkscape:zoom="8.0000002"
     inkscape:cx="-13.75"
     inkscape:cy="-19"
     inkscape:window-width="2880"
     inkscape:window-height="1694"
     inkscape:window-x="2869"
     inkscape:window-y="-11"
     inkscape:window-maximized="1"
     inkscape:current-layer="svg1"
     showgrid="true">
    <inkscape:grid
       id="grid2"
       units="px"
       originx="-236"
       originy="-236"
       spacingx="1"
       spacingy="1"
       empcolor="#0099e5"
       empopacity="0.30196078"
       color="#0099e5"
       opacity="0.14901961"
       empspacing="5"
       dotted="false"
       gridanglex="30"
       gridanglez="30"
       visible="true" />
  </sodipodi:namedview>
  <path
     sodipodi:type="star"
     style="fill:url(#linearGradient2);stroke:#55b0fb;stroke-width:25.2694;stroke-linecap:round;stroke-linejoin:round;stroke-dasharray:none;stroke-opacity:1"
     id="path5"
     inkscape:flatsided="true"
     sodipodi:sides="3"
     sodipodi:cx="100.32613"
     sodipodi:cy="124.97769"
     sodipodi:r1="250.73521"
     sodipodi:r2="125.36761"
     sodipodi:arg1="0.52359878"
     sodipodi:arg2="1.5707963"
     inkscape:rounded="0.1"
     inkscape:randomized="0"
     d="m 317.4692,250.3453 c -21.71431,37.61028 -412.571826,37.61028 -434.28613,0 -21.71431,-37.61028 173.714452,-376.10282 217.14306,-376.10282 43.42862,0 238.85738,338.49254 217.14307,376.10282 z"
     inkscape:transform-center-y="-2.6914698"
     transform="matrix(0.05540295,0,0,0.05540296,8.4416384,9.7673441)"
     inkscape:transform-center-x="-1.6060525e-06" />
  <path
     style="font-weight:bold;font-size:386.667px;font-family:Rubik;-inkscape-font-specification:'Rubik Bold';text-align:center;text-anchor:middle;fill:#ffffff;stroke:#067ddf;stroke-width:0.84;stroke-linecap:round;stroke-linejoin:round;stroke-dasharray:none;stroke-opacity:1"
     d="m 6.9914084,14.000004 q -0.59547,0 -0.59547,-0.59547 V 7.7746641 l -1.40747,1.0556 q -0.18947,0.13533 -0.43307,0.10827 -0.2436,-0.0271 -0.406,-0.2436 l -0.70373,-0.94734 q -0.1624,-0.21653 -0.13533,-0.43306 0.0541,-0.2436 0.2436,-0.406 l 2.842,-2.19241 q 0.27067,-0.18946 0.62253,-0.18946 h 1.65107 q 0.59547,0 0.59547,0.59546 v 8.2824099 q 0,0.59547 -0.59547,0.59547 z m -0.9744,9.47334 q -0.62254,0 -0.62254,-0.54133 0,-0.16241 0.10827,-0.29774 L 18.873678,5.0409241 q 0.18947,-0.2436 0.37894,-0.37893 0.18946,-0.13533 0.5684,-0.13533 h 1.40746 q 0.62254,0 0.62254,0.54133 0,0.1624 -0.10827,0.29773 L 8.3718084,22.959074 q -0.18947,0.2436 -0.37894,0.37894 -0.18946,0.13533 -0.5684,0.13533 z m 11.0702696,0 q -0.59547,0 -0.59547,-0.59547 v -0.92027 q 0,-0.21653 0.13534,-0.406 0.13533,-0.21653 0.54133,-0.4872 1.51574,-1.1368 2.46307,-1.81346 0.9744,-0.70374 1.40747,-1.19094 0.46013,-0.51427 0.46013,-1.0556 0,-0.406 -0.2436,-0.6496 -0.21653,-0.27067 -0.7308,-0.27067 -0.406,0 -0.62253,0.1624 -0.21654,0.13534 -0.3248,0.29774 -0.0812,0.1624 -0.1624,0.29773 -0.1624,0.29773 -0.29774,0.406 -0.13533,0.0812 -0.35186,0.0812 h -1.56987 q -0.51427,0 -0.4872,-0.51427 0.0541,-0.83906 0.5684,-1.48866 0.51427,-0.67667 1.35333,-1.05561 0.86614,-0.406 1.89467,-0.406 1.73227,0 2.7608,0.83907 1.02854,0.83907 1.02854,2.1924 0,0.83907 -0.406,1.51574 -0.406,0.67667 -1.19094,1.32627 -0.75786,0.6496 -1.89467,1.43453 h 3.27507 q 0.59547,0 0.59547,0.59547 v 1.10973 q 0,0.59547 -0.59547,0.59547 z"
     id="text1"
     aria-label="½" />
</svg>
