<?xml version="1.0" encoding="UTF-8" standalone="no"?>
<svg
   width="28.000002"
   height="28.000002"
   viewBox="0 0 28.000002 28.000002"
   version="1.1"
   id="svg1"
   sodipodi:docname="1-4.svg"
   inkscape:version="1.3.2 (091e20e, 2023-11-25, custom)"
   xmlns:inkscape="http://www.inkscape.org/namespaces/inkscape"
   xmlns:sodipodi="http://sodipodi.sourceforge.net/DTD/sodipodi-0.dtd"
   xmlns:xlink="http://www.w3.org/1999/xlink"
   xmlns="http://www.w3.org/2000/svg"
   xmlns:svg="http://www.w3.org/2000/svg">
  <defs
     id="defs1">
    <linearGradient
       inkscape:collect="always"
       xlink:href="#linearGradient1"
       id="linearGradient2"
       x1="100.32742"
       y1="-138.39206"
       x2="100.32742"
       y2="291.19003"
       gradientUnits="userSpaceOnUse" />
    <linearGradient
       id="linearGradient1"
       inkscape:collect="always">
      <stop
         style="stop-color:#91d271;stop-opacity:1;"
         offset="0"
         id="stop1" />
      <stop
         style="stop-color:#62b43a;stop-opacity:1;"
         offset="1"
         id="stop2" />
    </linearGradient>
  </defs>
  <sodipodi:namedview
     id="namedview1"
     pagecolor="#ffffff"
     bordercolor="#000000"
     borderopacity="0.25"
     inkscape:showpageshadow="2"
     inkscape:pageopacity="0.0"
     inkscape:pagecheckerboard="0"
     inkscape:deskcolor="#d1d1d1"
     inkscape:zoom="19.73463"
     inkscape:cx="11.755985"
     inkscape:cy="-4.2058048"
     inkscape:window-width="2880"
     inkscape:window-height="1694"
     inkscape:window-x="2869"
     inkscape:window-y="-11"
     inkscape:window-maximized="1"
     inkscape:current-layer="svg1" />
  <path
     sodipodi:type="star"
     style="fill:url(#linearGradient2);stroke:#91d271;stroke-width:25.2694;stroke-linecap:round;stroke-linejoin:round;stroke-dasharray:none;stroke-opacity:1"
     id="path5"
     inkscape:flatsided="true"
     sodipodi:sides="3"
     sodipodi:cx="100.32613"
     sodipodi:cy="124.97769"
     sodipodi:r1="250.73521"
     sodipodi:r2="125.36761"
     sodipodi:arg1="0.52359878"
     sodipodi:arg2="1.5707963"
     inkscape:rounded="0.1"
     inkscape:randomized="0"
     d="m 317.4692,250.3453 c -21.71431,37.61028 -412.571826,37.61028 -434.28613,0 -21.71431,-37.61028 173.714452,-376.10282 217.14306,-376.10282 43.42862,0 238.85738,338.49254 217.14307,376.10282 z"
     inkscape:transform-center-y="-2.6914738"
     transform="matrix(0.05540295,0,0,0.05540296,8.4416305,9.7673435)"
     inkscape:transform-center-x="3.0641747e-06" />
  <path
     style="font-weight:bold;font-size:386.667px;font-family:Rubik;-inkscape-font-specification:'Rubik Bold';text-align:center;text-anchor:middle;fill:#ffffff;stroke:#59a435;stroke-width:0.84;stroke-linecap:round;stroke-linejoin:round;stroke-dasharray:none;stroke-opacity:1"
     d="m 6.6801305,14.000003 q -0.59546,0 -0.59546,-0.59547 V 7.7746635 l -1.40747,1.0556 q -0.18947,0.13534 -0.43307,0.10827 -0.2436,-0.0271 -0.406,-0.2436 l -0.70373,-0.94733 q -0.1624,-0.21654 -0.13534,-0.43307 0.0541,-0.2436 0.2436,-0.406 l 2.84201,-2.1924 q 0.27066,-0.18947 0.62253,-0.18947 h 1.65107 q 0.59547,0 0.59547,0.59547 v 8.2823995 q 0,0.59547 -0.59547,0.59547 z m -0.9744,9.47334 q -0.62253,0 -0.62253,-0.54133 0,-0.1624 0.10827,-0.29773 L 18.562411,5.0409335 q 0.18947,-0.2436 0.37893,-0.37894 0.18947,-0.13533 0.56841,-0.13533 h 1.40746 q 0.62254,0 0.62254,0.54133 0,0.1624 -0.10827,0.29774 L 8.0605405,22.959083 q -0.18947,0.2436 -0.37894,0.37893 -0.18947,0.13533 -0.5684,0.13533 z m 15.5633505,0 q -0.59547,0 -0.59547,-0.59546 v -0.94734 h -4.06 q -0.59547,0 -0.59547,-0.59547 v -1.27213 q 0,-0.0541 0.0271,-0.27067 0.0541,-0.21653 0.29773,-0.54133 l 3.57281,-4.76374 q 0.21653,-0.29773 0.406,-0.37893 0.2165,-0.10827 0.40597,-0.10827 h 2.13826 q 0.59547,0 0.59547,0.59547 v 4.89907 h 0.94734 q 0.59546,0 0.59546,0.59547 v 1.24506 q 0,0.59547 -0.59546,0.59547 h -0.94734 v 0.94734 q 0,0.59546 -0.59547,0.59546 z m -2.38187,-3.8976 h 1.81347 v -2.5984 z"
     id="text1"
     aria-label="¼" />
</svg>
