<?xml version="1.0" encoding="UTF-8" standalone="no"?>
<svg
   width="27.999998"
   height="27.999998"
   viewBox="0 0 27.999998 27.999998"
   version="1.1"
   id="svg1"
   sodipodi:docname="X0.svg"
   inkscape:version="1.3.2 (091e20e, 2023-11-25, custom)"
   xmlns:inkscape="http://www.inkscape.org/namespaces/inkscape"
   xmlns:sodipodi="http://sodipodi.sourceforge.net/DTD/sodipodi-0.dtd"
   xmlns:xlink="http://www.w3.org/1999/xlink"
   xmlns="http://www.w3.org/2000/svg"
   xmlns:svg="http://www.w3.org/2000/svg">
  <defs
     id="defs1">
    <linearGradient
       id="linearGradient6"
       inkscape:collect="always">
      <stop
         style="stop-color:#3e3e3e;stop-opacity:1;"
         offset="0"
         id="stop7" />
      <stop
         style="stop-color:#1e1e1e;stop-opacity:1;"
         offset="1"
         id="stop8" />
    </linearGradient>
    <radialGradient
       inkscape:collect="always"
       xlink:href="#linearGradient6"
       id="radialGradient8"
       cx="250"
       cy="250"
       fx="250"
       fy="250"
       r="200"
       gradientUnits="userSpaceOnUse"
       gradientTransform="matrix(0.056,0,0,0.056,-1.567179e-6,4.0506847e-6)" />
  </defs>
  <sodipodi:namedview
     id="namedview1"
     pagecolor="#ffffff"
     bordercolor="#000000"
     borderopacity="0.25"
     inkscape:showpageshadow="2"
     inkscape:pageopacity="0.0"
     inkscape:pagecheckerboard="0"
     inkscape:deskcolor="#d1d1d1"
     inkscape:zoom="9.8673148"
     inkscape:cx="-23.765331"
     inkscape:cy="-34.051817"
     inkscape:window-width="2880"
     inkscape:window-height="1514"
     inkscape:window-x="-11"
     inkscape:window-y="1066"
     inkscape:window-maximized="1"
     inkscape:current-layer="svg1"
     showgrid="false" />
  <path
     id="rect6"
     style="fill:url(#radialGradient8);fill-opacity:1;stroke:#3e3e3e;stroke-width:1.4;stroke-linecap:round;stroke-linejoin:round;stroke-dasharray:none;stroke-opacity:1"
     d="m 6.3904384,2.8000541 c -0.91695,0 -1.83391,0.35125 -2.53652,1.05387 -1.40522,1.40522 -1.40522,3.66781 0,5.07304 l 5.07304,5.0730399 -5.07304,5.07304 c -1.40522,1.40522 -1.40522,3.66781 0,5.07304 1.40523,1.40522 3.66782,1.40522 5.07304,0 l 5.0730396,-5.07304 5.07304,5.07304 c 1.40523,1.40522 3.66782,1.40522 5.07304,0 1.40523,-1.40523 1.40523,-3.66782 0,-5.07304 l -5.07304,-5.07304 5.07304,-5.0730399 c 1.40523,-1.40523 1.40523,-3.66782 0,-5.07304 -1.40522,-1.40523 -3.66781,-1.40523 -5.07304,0 l -5.07304,5.07304 -5.0730396,-5.07304 c -0.70261,-0.70262 -1.61957,-1.05387 -2.53652,-1.05387 z" />
  <path
     style="font-weight:600;font-size:386.667px;font-family:Rubik;-inkscape-font-specification:'Rubik Semi-Bold';text-align:center;text-anchor:middle;fill:#ffffff;stroke:#141414;stroke-width:0.84;stroke-linecap:round;stroke-linejoin:round;stroke-dasharray:none;stroke-opacity:1"
     d="m 14.005418,21.795204 q -1.55904,0 -2.68502,-0.43306 -1.10432,-0.45472 -1.8405296,-1.23424 -0.71456,-0.80118 -1.08267,-1.84054 -0.34646,-1.06101 -0.41142,-2.25195 -0.0216,-0.58464 -0.0433,-1.2992 0,-0.73621 0,-1.47243 0.0217,-0.73621 0.0433,-1.3425 0.0433,-1.19094 0.41142,-2.2302999 0.38976,-1.03936 1.12597,-1.81888 0.7362196,-0.77952 1.8405396,-1.21259 1.12597,-0.45472 2.64171,-0.45472 1.51573,0 2.62005,0.45472 1.10432,0.43307 1.84054,1.21259 0.73621,0.77952 1.10432,1.81888 0.38976,1.0393599 0.45472,2.2302999 0.0216,0.60629 0.0216,1.3425 0.0217,0.73622 0,1.47243 0,0.71456 -0.0216,1.2992 -0.065,1.19094 -0.43307,2.25195 -0.36811,1.03936 -1.10432,1.84054 -0.71456,0.77952 -1.84053,1.23424 -1.10433,0.43306 -2.64171,0.43306 z m 0,-2.81493 q 1.25589,0 1.84053,-0.82283 0.58464,-0.82283 0.62795,-2.23029 0.0217,-0.62795 0.0217,-1.29921 0.0217,-0.67125 0,-1.3425 0,-0.67126 -0.0217,-1.2559 -0.0433,-1.34251 -0.62795,-2.1869899 -0.58464,-0.84448 -1.84053,-0.86613 -1.27755,0.0217 -1.86219,0.86613 -0.56299,0.8444799 -0.6063,2.1869899 -0.0217,0.58464 -0.0433,1.2559 0,0.67125 0,1.3425 0.0216,0.67126 0.0433,1.29921 0.0433,1.40746 0.62795,2.23029 0.58464,0.82283 1.84054,0.82283 z"
     id="text8"
     aria-label="0" />
</svg>
