<?xml version="1.0" encoding="UTF-8" standalone="no"?>
<svg
   width="27.999998"
   height="27.999998"
   viewBox="0 0 27.999998 27.999998"
   version="1.1"
   id="svg1"
   sodipodi:docname="X2.svg"
   inkscape:version="1.3.2 (091e20e, 2023-11-25, custom)"
   xmlns:inkscape="http://www.inkscape.org/namespaces/inkscape"
   xmlns:sodipodi="http://sodipodi.sourceforge.net/DTD/sodipodi-0.dtd"
   xmlns:xlink="http://www.w3.org/1999/xlink"
   xmlns="http://www.w3.org/2000/svg"
   xmlns:svg="http://www.w3.org/2000/svg">
  <defs
     id="defs1">
    <rect
       x="95.669388"
       y="158.09772"
       width="475.10394"
       height="272.41455"
       id="rect2" />
    <linearGradient
       id="linearGradient1"
       inkscape:collect="always">
      <stop
         style="stop-color:#e69611;stop-opacity:1;"
         offset="0"
         id="stop1" />
      <stop
         style="stop-color:#f2b959;stop-opacity:1;"
         offset="1"
         id="stop2" />
    </linearGradient>
    <linearGradient
       inkscape:collect="always"
       xlink:href="#linearGradient1"
       id="linearGradient2"
       x1="50"
       y1="250"
       x2="450"
       y2="250"
       gradientUnits="userSpaceOnUse"
       gradientTransform="matrix(0.056,0,0,0.056,4.0506847e-6,-27.999998)" />
  </defs>
  <sodipodi:namedview
     id="namedview1"
     pagecolor="#ffffff"
     bordercolor="#000000"
     borderopacity="0.25"
     inkscape:showpageshadow="2"
     inkscape:pageopacity="0.0"
     inkscape:pagecheckerboard="0"
     inkscape:deskcolor="#d1d1d1"
     inkscape:zoom="39.469257"
     inkscape:cx="19.40751"
     inkscape:cy="13.808215"
     inkscape:window-width="2880"
     inkscape:window-height="1694"
     inkscape:window-x="2869"
     inkscape:window-y="-11"
     inkscape:window-maximized="1"
     inkscape:current-layer="svg1"
     showgrid="false" />
  <circle
     style="fill:url(#linearGradient2);stroke:#f2b959;stroke-width:1.4;stroke-linecap:round;stroke-linejoin:round;stroke-dasharray:none;stroke-opacity:1"
     id="path6"
     cx="14.000004"
     cy="-13.999998"
     r="11.2"
     transform="rotate(90)" />
  <path
     style="font-weight:600;font-size:175.186px;font-family:Rubik;-inkscape-font-specification:'Rubik Semi-Bold';text-align:center;text-anchor:middle;white-space:pre;fill:#ffffff;stroke:#d18910;stroke-width:0.84;stroke-linecap:round;stroke-linejoin:round;stroke-dasharray:none;stroke-opacity:1"
     d="m 3.3790684,20.409374 -1.45077,-1.45077 q -0.15157,-0.17322 -0.15157,-0.36811 0,-0.21653 0.15157,-0.38975 l 2.9665,-2.9665 -2.9665,-2.96651 q -0.15157,-0.15157 -0.15157,-0.3681 0,-0.21653 0.15157,-0.36811 l 1.45077,-1.47242 q 0.17322,-0.1515699 0.38976,-0.1515699 0.21653,0 0.3681,0.1515699 l 2.96651,2.98815 2.9448396,-2.9665 q 0.17323,-0.1732199 0.36811,-0.1732199 0.21653,0 0.38976,0.1732199 l 1.45077,1.45077 q 0.17322,0.15158 0.17322,0.36811 0,0.21653 -0.17322,0.38976 l -2.9448496,2.94485 2.9448496,2.9665 q 0.17322,0.15157 0.17322,0.3681 0,0.21654 -0.17322,0.36811 l -1.45077,1.47242 q -0.17323,0.15157 -0.38976,0.15157 -0.19488,0 -0.36811,-0.15157 l -2.9448396,-2.9665 -2.96651,2.9665 q -0.15157,0.15157 -0.3681,0.15157 -0.21654,0 -0.38976,-0.15157 z m 11.5844996,1.2992 q -0.23819,0 -0.38976,-0.15157 -0.15157,-0.15158 -0.15157,-0.38976 v -1.2992 q 0,-0.17323 0.0866,-0.45472 0.10827,-0.30315 0.45472,-0.58464 l 2.85823,-2.83658 q 1.58069,-1.21258 2.55509,-2.05706 0.99605,-0.84448 1.47243,-1.53738 0.47637,-0.69291 0.47637,-1.34251 0,-0.84448 -0.47637,-1.3858099 -0.45472,-0.56299 -1.49408,-0.56299 -0.69291,0 -1.16928,0.30315 -0.45472,0.28149 -0.71456,0.7578699 -0.25984,0.47637 -0.34645,1.03935 -0.065,0.2815 -0.28149,0.38976 -0.19488,0.10827 -0.41142,0.10827 h -2.29524 q -0.21654,0 -0.34646,-0.12992 -0.12992,-0.15157 -0.12992,-0.3248 0.0217,-0.99605 0.41142,-1.8838399 0.41141,-0.88778 1.14762,-1.58069 0.73621,-0.6929 1.77557,-1.08266 1.03936,-0.41141 2.36021,-0.41141 1.81887,0 3.05311,0.60629 1.23424,0.58464 1.86218,1.624 0.62795,1.03935 0.62795,2.4035099 0,1.03936 -0.43306,1.92714 -0.41142,0.88779 -1.21259,1.71061 -0.80117,0.80118 -1.90549,1.66731 l -2.55509,2.55509 h 5.8897 q 0.23818,0 0.38976,0.15157 0.15157,0.15157 0.15157,0.38976 v 1.84053 q 0,0.23818 -0.15157,0.38976 -0.15158,0.15157 -0.38976,0.15157 z"
     id="text2"
     aria-label="×2" />
</svg>
