<?xml version="1.0" encoding="UTF-8" standalone="no"?>
<svg
   width="27.999998"
   height="27.999998"
   viewBox="0 0 27.999998 27.999998"
   version="1.1"
   id="svg1"
   sodipodi:docname="X4.svg"
   inkscape:version="1.3.2 (091e20e, 2023-11-25, custom)"
   xmlns:inkscape="http://www.inkscape.org/namespaces/inkscape"
   xmlns:sodipodi="http://sodipodi.sourceforge.net/DTD/sodipodi-0.dtd"
   xmlns:xlink="http://www.w3.org/1999/xlink"
   xmlns="http://www.w3.org/2000/svg"
   xmlns:svg="http://www.w3.org/2000/svg">
  <defs
     id="defs1">
    <rect
       x="95.669388"
       y="158.09772"
       width="475.10394"
       height="272.41455"
       id="rect2" />
    <linearGradient
       id="linearGradient1"
       inkscape:collect="always">
      <stop
         style="stop-color:#d13210;stop-opacity:1;"
         offset="0"
         id="stop1" />
      <stop
         style="stop-color:#f27459;stop-opacity:1;"
         offset="1"
         id="stop2" />
    </linearGradient>
    <linearGradient
       inkscape:collect="always"
       xlink:href="#linearGradient1"
       id="linearGradient2"
       x1="50"
       y1="250"
       x2="450"
       y2="250"
       gradientUnits="userSpaceOnUse"
       gradientTransform="matrix(0.056,0,0,0.056,4.0506847e-6,-27.999998)" />
  </defs>
  <sodipodi:namedview
     id="namedview1"
     pagecolor="#ffffff"
     bordercolor="#000000"
     borderopacity="0.25"
     inkscape:showpageshadow="2"
     inkscape:pageopacity="0.0"
     inkscape:pagecheckerboard="0"
     inkscape:deskcolor="#d1d1d1"
     inkscape:zoom="9.8673144"
     inkscape:cx="-33.545095"
     inkscape:cy="-8.3102653"
     inkscape:window-width="2880"
     inkscape:window-height="1694"
     inkscape:window-x="2869"
     inkscape:window-y="-11"
     inkscape:window-maximized="1"
     inkscape:current-layer="svg1" />
  <circle
     style="fill:url(#linearGradient2);stroke:#f27459;stroke-width:1.4;stroke-linecap:round;stroke-linejoin:round;stroke-dasharray:none;stroke-opacity:1"
     id="path6"
     cx="14.000004"
     cy="-13.999998"
     r="11.2"
     transform="rotate(90)" />
  <path
     style="font-weight:600;font-size:175.186px;font-family:Rubik;-inkscape-font-specification:'Rubik Semi-Bold';text-align:center;text-anchor:middle;white-space:pre;fill:#ffffff;stroke:#bd2e0f;stroke-width:0.84;stroke-linecap:round;stroke-linejoin:round;stroke-dasharray:none;stroke-opacity:1"
     d="m 2.8702184,20.279454 -1.45077,-1.45077 q -0.15158,-0.17322 -0.15158,-0.36811 0,-0.21653 0.15158,-0.38975 l 2.9665,-2.9665 -2.9665,-2.96651 q -0.15158,-0.15157 -0.15158,-0.3681 0,-0.21653 0.15158,-0.36811 l 1.45077,-1.4724199 q 0.17322,-0.15157 0.38976,-0.15157 0.21653,0 0.3681,0.15157 l 2.9665,2.9881499 2.94485,-2.9664999 q 0.17323,-0.17322 0.36811,-0.17322 0.2165296,0 0.3897596,0.17322 l 1.45077,1.4507699 q 0.17322,0.15158 0.17322,0.36811 0,0.21653 -0.17322,0.38976 l -2.9448496,2.94485 2.9448496,2.9665 q 0.17322,0.15157 0.17322,0.3681 0,0.21654 -0.17322,0.36811 l -1.45077,1.47242 q -0.17323,0.15157 -0.3897596,0.15157 -0.19488,0 -0.36811,-0.15157 l -2.94485,-2.9665 -2.9665,2.9665 q -0.15157,0.15157 -0.3681,0.15157 -0.21654,0 -0.38976,-0.15157 z m 18.6001596,1.2992 q -0.21653,0 -0.3681,-0.15157 -0.15158,-0.15158 -0.15158,-0.38976 v -2.5984 h -6.82078 q -0.21653,0 -0.36811,-0.15157 -0.15157,-0.15157 -0.15157,-0.38976 v -1.75392 q 0,-0.15157 0.065,-0.3248 0.065,-0.17322 0.17323,-0.3248 l 6.34441,-8.7046199 q 0.28149,-0.3681 0.80117,-0.3681 h 2.74997 q 0.21653,0 0.36811,0.15157 0.15157,0.15157 0.15157,0.38976 v 8.5963499 h 1.92714 q 0.25984,0 0.38976,0.15158 0.15157,0.15157 0.15157,0.3681 v 1.81888 q 0,0.23819 -0.15157,0.38976 -0.15157,0.15157 -0.36811,0.15157 h -1.94879 v 2.5984 q 0,0.23818 -0.15157,0.38976 -0.15158,0.15157 -0.36811,0.15157 z m -4.50388,-5.91135 h 4.04916 V 9.9724941 Z"
     id="text2"
     aria-label="×4" />
</svg>
