<svg xmlns="http://www.w3.org/2000/svg" viewBox="0 0 128 128"><defs><style>.cls-1{fill:#096dc4;}.cls-2{fill:#fff;}</style></defs><title>dragon</title><g id="dragon"><circle class="cls-1" cx="64" cy="64" r="64"/><path class="cls-2" d="M100.89,57.49a37.4,37.4,0,0,0-35.17-30,18.22,18.22,0,0,0-.22-13A33,33,0,0,1,57,26a20.84,20.84,0,0,1-5.24,3.61,55.67,55.67,0,0,0-5.58,2.51,37.7,37.7,0,0,0-16,17.38A37.22,37.22,0,0,0,26.93,63a101,101,0,0,1,12.6-3.07c3.78-.66,7.61-1,11.41-1.51,7-1,12.51-5.06,16.37-11a19.88,19.88,0,0,1-10.54,38.3,26.7,26.7,0,0,0,8.81,10.82,26.31,26.31,0,0,0,6.36,3.35,6.9,6.9,0,0,0,3.23.71,18,18,0,0,0,3.74-1.36,37.37,37.37,0,0,0,22-41.77ZM40.81,45a10,10,0,0,1,8.36-2.83A10.07,10.07,0,0,1,38,53.36,10,10,0,0,1,40.81,45Zm19.6,57.06A37.4,37.4,0,0,1,27.76,73a53,53,0,0,1,26.55-6.44A26.16,26.16,0,0,0,50.07,82.8,26.43,26.43,0,0,0,60.41,102.06Z"/></g></svg>