<svg xmlns="http://www.w3.org/2000/svg" viewBox="0 0 128 128"><defs><style>.cls-1{fill:#ce4069;}.cls-2{fill:#fff;}</style></defs><title>fighting</title><g id="fighting"><circle class="cls-1" cx="64" cy="64" r="64"/><path class="cls-2" d="M22.93,81.14l5,12.19A4.19,4.19,0,0,0,36,91.74V56.26a4.19,4.19,0,0,0-8.07-1.59l-5,12.19A18.78,18.78,0,0,0,22.93,81.14Z"/><path class="cls-2" d="M101.5,91.25V38.75a5.25,5.25,0,0,0-5.25-5.25h-2.5a5.25,5.25,0,0,0-5.25,5.25V55.83a1.67,1.67,0,0,1-1.67,1.67h0a1.66,1.66,0,0,1-1.66-1.67V38.75a5.25,5.25,0,0,0-5.25-5.25h-2.5a5.25,5.25,0,0,0-5.25,5.25V55.83A1.67,1.67,0,0,1,70.5,57.5h0a1.67,1.67,0,0,1-1.67-1.67V38.75a5.25,5.25,0,0,0-5.25-5.25h-2.5a5.25,5.25,0,0,0-5.25,5.25V55.83a1.66,1.66,0,0,1-1.66,1.67h0a1.67,1.67,0,0,1-1.67-1.67V38.75a5.25,5.25,0,0,0-5.25-5.25h-2.5a5.25,5.25,0,0,0-5.25,5.25v52.5a5.25,5.25,0,0,0,5.25,5.25h51.5A5.25,5.25,0,0,0,101.5,91.25Z"/></g></svg>