<svg xmlns="http://www.w3.org/2000/svg" viewBox="0 0 128 128"><defs><style>.cls-1{fill:#ff9c54;}.cls-2{fill:#fff;}</style></defs><title>fire</title><g id="fire"><circle class="cls-1" cx="64" cy="64" r="64"/><path class="cls-2" d="M85.66,42.61c10.26,7.29,16.23,20.77,11.7,33C93.1,87.14,81.19,94.35,69.19,94.69A14,14,0,1,0,52.08,75.08c-5,9.6,2.9,19.17,11.52,23,9.77,4.36,21.06,1.14,28.9-5.6C79,111,51.67,114.29,36.67,95.81c-10.2-12.57-10.44-31-1.17-44.31C33.27,58.71,35,66,41,70c-6-12-2-21.09,6.14-29.14,3.92-3.88,8.91-5.36,13-8.75,4.5-3.72,5.09-9.9,4.23-15.33a20.61,20.61,0,0,1,11,19.72C64,36.55,59.83,52.37,69.85,58,79.61,63.52,90.94,52.54,85.66,42.61Z"/></g></svg>