<svg xmlns="http://www.w3.org/2000/svg" viewBox="0 0 128 128"><defs><style>.cls-1{fill:#5269ac;}.cls-2{fill:#fff;}</style></defs><title>ghost</title><g id="ghost"><circle class="cls-1" cx="64" cy="64" r="64"/><path class="cls-2" d="M100.25,63C100.25,29.75,59,12.2,35,35.27c-24.16,23.28-7.54,65.19,26,66.21,17.5,0,25.54-1.47,37.92-4.64a36.21,36.21,0,0,1-10.23-6.35A38.38,38.38,0,0,0,100.25,63Zm-54,3a9.25,9.25,0,0,1-2.64-18.11,10.11,10.11,0,0,0-.11,1.36,9.23,9.23,0,0,0,11.89,8.86A9.25,9.25,0,0,1,46.25,66Zm30.89,0A9.24,9.24,0,0,1,68,58.11a9.23,9.23,0,0,0,11.89-8.86,10.11,10.11,0,0,0-.11-1.36A9.25,9.25,0,0,1,77.14,66Z"/></g></svg>