<svg xmlns="http://www.w3.org/2000/svg" viewBox="0 0 128 128"><defs><style>.cls-1{fill:#63bb5b;}.cls-2{fill:#fff;}</style></defs><title>grass</title><g id="grass"><circle class="cls-1" cx="64" cy="64" r="64"/><path class="cls-2" d="M99.76,26.37c-2.71-2.38-13.54.23-16.62.6a142.29,142.29,0,0,0-30,6.62c-10.05,3.55-18.25,8.67-23,18.6a37.09,37.09,0,0,0,4.39,38.52c2.19-2.33,5.33-4.68,7.06-7.36,2.31-3.57,1.05-10.7,1.22-15.18.05-1.32.54-19.59,1.43-19.65,1.08-.07,3.87,17.86,4.87,24.54a1.2,1.2,0,0,0,2,.67q3.57-3.53,7.17-7c1.64-1.59,2.46-2.21,2.9-4.28s.11-4.89.25-7.08c.08-1.3,1-17.76,2.18-17.84s3.65,12.83,4.57,17.66a1,1,0,0,0,1.61.5c4.86-4.71,20-19.43,20.71-18.77s-11.86,17.56-15.89,23a1,1,0,0,0,.71,1.53c4.91.27,18,1.12,18.11,2.2s-16.22,4.28-17.4,4.51c-2,.41-4.23.55-6.23,1.07-2.56.67-3,1.3-4.61,3.54q-3,4-6,8a1.21,1.21,0,0,0,.94,1.94c6.76.11,24.89.52,25,1.6.05.9-18,3.78-19.3,4-4.13.71-11.11.43-14.42,2.61-2.55,1.68-4.9,6.18-6.84,8.56a37.05,37.05,0,0,0,37.66,0c9.6-5.73,14-14.44,16.34-25a138.36,138.36,0,0,0,2.8-31.13c0-3.8-.14-7.61-.52-11.39C100.7,30.69,100.83,27.31,99.76,26.37Z"/></g></svg>