<svg xmlns="http://www.w3.org/2000/svg" viewBox="0 0 128 128"><defs><style>.cls-1{fill:#ab6ac8;}.cls-2{fill:#fff;}</style></defs><title>poison</title><g id="poison"><circle class="cls-1" cx="64" cy="64" r="64"/><path class="cls-2" d="M104,59c0-18.41-17.91-33.33-40-33.33S24,40.59,24,59c0,10,5.33,19,13.75,25.14A14,14,0,0,0,36,91c0,6.63,4.33,12,9.67,12,4.16,0,7.7-3.27,9.07-7.84C55.93,99.69,59.62,103,64,103s8.07-3.31,9.26-7.84c1.37,4.57,4.91,7.84,9.07,7.84C87.67,103,92,97.63,92,91a14,14,0,0,0-1.75-6.86C98.67,78,104,69,104,59ZM64,79.33C49.36,79.33,37,70,37,59S49.36,38.67,64,38.67,91,48,91,59,78.64,79.33,64,79.33Z"/></g></svg>