<svg xmlns="http://www.w3.org/2000/svg" viewBox="0 0 128 128"><defs><style>.cls-1{fill:#f97176;}.cls-2{fill:#fef5f5;}</style></defs><title>psychic</title><g id="psychic"><circle class="cls-1" cx="64" cy="64" r="64"/><path class="cls-2" d="M84.54,95.52c-17.55,9.39-41.48,5.06-51.87-12.8-9.5-16.31-4.33-39.23,11.57-49.56s39.1-5.67,50.1,9.48c12.83,17.66,3.22,44.14-19.41,46.25-9.52.88-20-3.53-24.6-12.3-4.1-7.9-2.13-19.38,5.36-24.6S75.3,47.73,79.1,57c1.61,3.94,1,9.31-2.06,12.43C74.46,72,68.46,73,65.67,70c-1-1.1-2.09-3.15-.15-3.93.76-.3,2.7,1,3.61,1,4.19-.06,5.52-5.35,3.37-8.46-2.61-3.76-8.38-3.48-11.66-.93-4,3.12-4.5,8.29-2.77,12.8,3.36,8.71,14.29,10.68,21.74,5.7,7.24-4.85,8.34-16.5,4.67-23.87-5-10.11-18.82-13.08-28.79-9.47s-15.76,13.28-16,23.58A28.92,28.92,0,0,0,51.39,90.17C61.13,97.29,73.2,95.52,84.54,95.52Z"/></g></svg>