<svg xmlns="http://www.w3.org/2000/svg" viewBox="0 0 512 512" style="height: 512px; width: 512px;"><circle cx="256" cy="256" r="256" fill="#68a090" fill-opacity="1"></circle><g class="" transform="translate(0,-20)" style=""><g><path d="M257.78 19.438C129.86 19.454 26.03 123.293 26.03 251.218C26.03 306.952 45.74 357.994 78.562 397.938L57.75 434.094L190.156 434.094L123.844 319.374L101.469 358.374C80.569 327.896 68.405 290.932 68.405 251.219C68.405 146.696 153.259 61.843 257.78 61.843C362.303 61.843 447.188 146.696 447.188 251.218C447.188 290.326 435.508 326.882 415.188 357.092L393.313 319.372L327 434.095L459.406 434.095L437.812 396.625C470.037 356.845 489.562 306.372 489.562 251.22C489.562 123.293 385.735 19.454 257.812 19.438L257.782 19.438Z" class="selected" fill="#ffffff" fill-opacity="0"></path><path d="M257.125 94.906C207.597 94.859 146.651 124.138 128.719 199.844L189.469 214.156C216.434 137.914 280.339 143.332 302.779 185.531C329.554 235.877 213.092 292.814 218.655 375.938L296.343 375.938C302.833 277.794 415.316 252.448 355.905 146.408C337.963 114.38 301 96.572 261.876 95.03L261.876 95C260.293 94.938 258.71 94.907 257.126 94.906Z" class="" fill="#fff" fill-opacity="1"></path><path d="M258.5 395.97C231.63 395.89 209.827 417.692 209.906 444.562C209.827 471.432 231.63 493.235 258.5 493.156C285.37 493.235 307.173 471.432 307.094 444.562C307.172 417.692 285.37 395.89 258.5 395.969Z" class="" fill="#fff" fill-opacity="1"></path></g></g></svg>