<?xml version="1.0" encoding="UTF-8" standalone="no"?>
<!DOCTYPE svg PUBLIC "-//W3C//DTD SVG 1.1//EN" "http://www.w3.org/Graphics/SVG/1.1/DTD/svg11.dtd">
<svg xmlns="http://www.w3.org/2000/svg" version="1.1" viewBox="0 0 43 44" width="200" height="200">

<path fill="white" fill-opacity="1.000" d="M 7.06 3.06 L 24.78 3.00 Q 26.02 3.00 25.22 3.95 L 13.70 17.69 Q 13.02 18.50 14.08 18.51 L 24.69 18.55 A 0.33 0.32 12.2 0 1 24.99 19.01 Q 23.94 21.24 22.09 22.66 Q 20.44 23.93 17.44 23.97 Q 10.09 24.04 2.69 24.00 Q 1.29 23.99 2.19 22.89 L 13.63 8.96 Q 13.96 8.56 13.44 8.56 L 2.81 8.44 Q 2.20 8.44 2.55 7.99 L 6.18 3.39 A 1.25 0.79 11.8 0 1 7.06 3.06 Z"/>
<path fill="white" fill-opacity="1.000" d="M 28.78 24.00 L 41.49 24.00 Q 42.86 24.00 41.90 24.98 Q 37.50 29.46 33.84 35.02 Q 33.57 35.43 34.06 35.41 L 40.13 35.24 Q 41.24 35.21 40.57 36.04 L 37.10 40.40 A 1.14 0.93 15.3 0 1 36.25 40.78 L 22.06 40.94 Q 21.06 40.95 21.73 40.13 L 29.71 30.40 Q 30.11 29.92 29.51 29.90 L 23.66 29.76 Q 22.32 29.73 23.07 28.79 L 25.90 25.27 Q 26.91 24.00 28.78 24.00 Z"/>
</svg>
