<?xml version="1.0" encoding="UTF-8" standalone="no"?>
<!DOCTYPE svg PUBLIC "-//W3C//DTD SVG 1.1//EN" "http://www.w3.org/Graphics/SVG/1.1/DTD/svg11.dtd">
<svg xmlns="http://www.w3.org/2000/svg" version="1.1" viewBox="-2 0 44 44" width="200" height="200">
<path fill="white" fill-opacity="1.000" d="M 24.47 2.01 Q 23.63 3.92 23.82 5.87 Q 24.00 7.71 25.61 9.62 Q 26.92 11.19 28.69 12.81 Q 31.20 15.13 33.30 18.11 Q 35.53 21.28 36.24 24.39 Q 38.18 32.92 31.19 38.69 Q 22.55 45.81 12.54 41.58 Q 8.86 40.02 6.63 37.51 Q 3.96 34.51 3.50 30.75 Q 2.26 20.59 9.89 12.85 Q 10.24 12.51 10.06 12.97 Q 8.07 18.12 12.05 20.20 Q 14.38 21.41 16.43 20.19 Q 19.19 18.55 17.31 14.69 Q 11.66 3.03 24.18 1.61 Q 24.67 1.56 24.47 2.01 Z M 27.5471 32.7895 A 7.54 7.00 -1.6 0 0 19.8145 26.0027 A 7.54 7.00 -1.6 0 0 12.4729 33.2105 A 7.54 7.00 -1.6 0 0 20.2055 39.9973 A 7.54 7.00 -1.6 0 0 27.5471 32.7895 Z" />

</svg>
