<?xml version="1.0" encoding="UTF-8" standalone="no"?>
<!DOCTYPE svg PUBLIC "-//W3C//DTD SVG 1.1//EN" "http://www.w3.org/Graphics/SVG/1.1/DTD/svg11.dtd">
<svg xmlns="http://www.w3.org/2000/svg" version="1.1" viewBox="0 0 44 44" width="200" height="200">
<path fill="white" fill-opacity="1.000" d="M 8.87 2.41 Q 10.62 4.50 12.88 6.75 A 0.94 0.94 -35.4 0 0 13.95 6.93 Q 22.00 3.03 30.04 6.93 A 0.97 0.96 35.5 0 0 31.13 6.75 L 36.25 1.62 Q 37.63 0.25 39.00 1.62 L 42.36 4.98 Q 43.75 6.38 42.36 7.77 L 37.21 12.91 A 0.79 0.78 -34.8 0 0 37.05 13.77 Q 40.80 22.08 37.21 30.05 A 0.81 0.79 -52.8 0 0 37.31 30.89 Q 39.29 33.41 41.75 35.49 Q 44.57 37.88 41.76 39.73 Q 40.70 40.42 39.91 41.41 Q 37.52 44.40 35.44 41.56 Q 34.17 39.84 30.90 37.31 A 0.87 0.82 -36.8 0 0 30.03 37.21 Q 21.99 40.70 13.95 37.20 A 0.83 0.67 32.3 0 0 13.10 37.30 L 8.34 41.92 Q 6.45 43.76 4.79 42.13 L 1.67 39.06 Q 0.23 37.65 1.70 36.18 L 6.46 31.42 A 1.64 1.63 -35.7 0 0 6.77 29.54 Q 3.57 23.07 6.67 14.65 A 2.16 2.16 33.9 0 0 6.23 12.42 Q 4.48 10.53 2.01 8.11 Q 1.10 7.22 0.99 6.52 Q 0.82 5.37 2.00 4.60 Q 3.24 3.79 4.06 2.57 Q 6.24 -0.71 8.87 2.41 Z M 26.44 16.31 Q 27.86 17.04 28.89 19.72 A 0.79 0.68 77.4 0 0 29.57 20.23 L 35.00 20.07 A 0.45 0.41 81.7 0 0 35.38 19.51 Q 32.92 10.22 24.68 8.72 Q 19.12 7.71 14.73 10.53 Q 10.13 13.48 8.49 19.57 A 0.53 0.52 -82.3 0 0 8.99 20.24 L 14.45 20.21 A 0.86 0.76 -76.0 0 0 15.15 19.73 Q 18.66 12.33 26.44 16.31 Z M 25.64 22.00 A 3.64 3.64 0 0 0 22.00 18.36 A 3.64 3.64 0 0 0 18.36 22.00 A 3.64 3.64 0 0 0 22.00 25.64 A 3.64 3.64 0 0 0 25.64 22.00 Z M 20.06 28.94 Q 16.67 28.21 15.23 24.41 A 0.83 0.69 78.1 0 0 14.56 23.88 L 8.98 23.81 A 0.45 0.43 82.3 0 0 8.57 24.38 Q 10.70 32.15 16.87 34.59 Q 22.53 36.83 27.93 34.24 Q 33.42 31.61 35.39 24.51 A 0.56 0.53 -82.0 0 0 34.89 23.81 L 29.57 23.78 A 0.81 0.72 -77.1 0 0 28.88 24.27 Q 26.33 30.29 20.06 28.94 Z"/>
</svg>
