<?xml version="1.0" encoding="UTF-8" standalone="no"?>
<!DOCTYPE svg PUBLIC "-//W3C//DTD SVG 1.1//EN" "http://www.w3.org/Graphics/SVG/1.1/DTD/svg11.dtd">
<svg xmlns="http://www.w3.org/2000/svg" version="1.1" viewBox="-5 0 44 44" width="200" height="200">
<path fill="white" fill-opacity="1.000" d="M 9.86 6.25 L 22.30 6.25 A 0.73 0.71 -8.8 0 1 22.99 6.74 L 29.24 25.50 A 0.39 0.38 -9.2 0 1 28.87 26.00 L 21.06 26.05 A 0.37 0.36 80.7 0 0 20.72 26.54 L 25.29 40.95 Q 25.45 41.46 25.09 41.08 L 3.53 18.35 Q 2.72 17.50 3.91 17.49 L 11.44 17.45 A 0.46 0.44 86.6 0 0 11.88 16.94 Q 11.27 12.13 9.15 7.33 A 0.77 0.77 -11.7 0 1 9.86 6.25 Z"/>
</svg>
