<?xml version="1.0" encoding="UTF-8" standalone="no"?>
<!DOCTYPE svg PUBLIC "-//W3C//DTD SVG 1.1//EN" "http://www.w3.org/Graphics/SVG/1.1/DTD/svg11.dtd">
<svg xmlns="http://www.w3.org/2000/svg" version="1.1" viewBox="-2 0 44 44" width="200" height="200">
<path fill="white" fill-opacity="1.000" d="M 39.11 17.52 Q 40.48 24.60 34.07 30.79 A 2.37 2.36 -30.5 0 0 33.45 33.16 Q 34.35 36.12 32.46 38.18 Q 30.94 39.85 28.99 39.71 Q 26.74 39.55 25.65 36.74 Q 25.41 36.13 25.05 36.68 Q 20.93 42.88 17.09 36.80 A 0.26 0.26 46.1 0 0 16.66 36.79 Q 13.52 41.14 10.41 38.94 Q 8.90 37.88 8.50 35.94 Q 8.12 34.07 8.66 32.16 A 0.78 0.74 -62.2 0 0 8.44 31.37 Q 4.48 27.97 3.31 24.44 Q 0.39 15.62 7.67 9.17 Q 12.10 5.25 18.00 4.50 Q 25.88 3.50 31.84 7.30 Q 37.89 11.17 39.11 17.52 Z M 33.2998 19.7357 A 12.28 9.44 -0.3 0 0 20.9706 10.3601 A 12.28 9.44 -0.3 0 0 8.7402 19.8643 A 12.28 9.44 -0.3 0 0 21.0694 29.2399 A 12.28 9.44 -0.3 0 0 33.2998 19.7357 Z"/>
</svg>
