<?xml version="1.0" encoding="iso-8859-1"?>
<!-- Uploaded to: SVG Repo, www.svgrepo.com, Generator: SVG Repo Mixer Tools -->
<!DOCTYPE svg PUBLIC "-//W3C//DTD SVG 1.1//EN" "http://www.w3.org/Graphics/SVG/1.1/DTD/svg11.dtd">
<svg fill="#000000" height="800px" width="800px" version="1.1" id="Capa_1" xmlns="http://www.w3.org/2000/svg" xmlns:xlink="http://www.w3.org/1999/xlink" 
	 viewBox="0 0 297 297" xml:space="preserve">
<g>
	<path d="M207.37,113.149c-49.423,0-89.631,40.207-89.631,89.63c0,49.423,40.209,89.631,89.631,89.631
		c49.423,0,89.63-40.209,89.63-89.631C297,153.356,256.793,113.149,207.37,113.149z M207.369,178.328
		c-6.752,0-12.226-5.474-12.226-12.226c0-6.752,5.474-12.226,12.226-12.226c6.752,0,12.226,5.474,12.226,12.226
		C219.595,172.854,214.121,178.328,207.369,178.328z M231.821,215.005c-6.752,0-12.226-5.474-12.226-12.226
		c0-6.752,5.474-12.226,12.226-12.226s12.226,5.474,12.226,12.226C244.046,209.531,238.573,215.005,231.821,215.005z
		 M256.272,178.328c-6.752,0-12.226-5.474-12.226-12.226c0-6.752,5.474-12.226,12.226-12.226c6.752,0,12.226,5.474,12.226,12.226
		C268.497,172.854,263.024,178.328,256.272,178.328z"/>
	<path d="M103.911,106.196c-0.088,0.006-0.176,0.012-0.264,0.019c0.128,11.276,1.787,31.195,10.911,45.451
		c8.026-14.516,19.357-26.958,32.972-36.307C139.239,110.892,123.947,104.795,103.911,106.196z"/>
	<path d="M169.301,103.876c11.821-4.566,24.656-7.076,38.068-7.076c29.86,0,56.871,12.418,76.153,32.355
		C262.904,96.597,213.489,26.702,164.19,17.585c-2.719-0.501-5.393,1.115-6.203,3.767l-9.46,30.963
		c-3.094-5.619-7.621-12.227-14.135-18.718c-14.65-14.6-42.615-31.439-92.64-28.714c-2.426,0.131-4.471,1.853-5.015,4.221
		c-0.664,2.892-14.579,65.127,7.453,101.035l-38.4-2.4c-1.873-0.113-3.7,0.751-4.792,2.296c-1.091,1.546-1.302,3.545-0.559,5.285
		c0.523,1.223,13.085,30.352,38.36,66.851c20.333,29.362,52.536,68.327,95.661,97.452c-20.356-19.324-33.069-46.626-33.069-76.843
		c0-9.782,1.338-19.257,3.831-28.256c-27.355-26.496-23.259-76.777-23.072-78.907c0.435-4.911,4.109-8.918,8.964-9.775
		C136.467,77.851,168.034,102.857,169.301,103.876z"/>
</g>
</svg>